<?xml version="1.0" standalone="no"?>
<!DOCTYPE svg PUBLIC "-//W3C//DTD SVG 20010904//EN"
 "http://www.w3.org/TR/2001/REC-SVG-20010904/DTD/svg10.dtd">
<svg version="1.0" xmlns="http://www.w3.org/2000/svg"
 width="700.000000pt" height="700.000000pt" viewBox="0 0 700.000000 700.000000"
 preserveAspectRatio="xMidYMid meet">
<metadata>
Created by potrace 1.11, written by Peter Selinger 2001-2013
</metadata>
<g transform="translate(0.000000,700.000000) scale(0.100000,-0.100000)"
fill="#000000" stroke="none">
<path d="M5030 5800 l-35 -5 0 -387 c0 -254 3 -388 10 -389 5 -1 58 -2 117 -3
58 0 110 -4 114 -8 5 -6 9 -478 5 -608 l-1 -25 -642 0 -643 0 -1 460 c-1 253
-2 470 -3 482 l-1 22 -463 0 -463 -1 -1 -457 c-1 -251 -2 -463 -2 -472 -1 -14
-48 -16 -461 -15 -402 1 -460 -1 -461 -14 0 -8 -1 -55 -2 -105 l-2 -90 -643 0
c-565 0 -645 2 -651 15 -3 8 -6 243 -6 523 1 279 -1 508 -4 509 -3 0 -166 2
-361 3 l-355 1 0 -988 c0 -870 2 -989 15 -993 8 -2 171 -4 362 -3 247 0 348 4
350 12 2 6 3 48 3 94 -1 45 1 82 4 83 26 4 1291 3 1292 -1 1 -3 2 -260 3 -573
1 -371 -2 -567 -9 -568 -5 -1 -50 -2 -100 -3 l-90 -1 -3 -361 c-2 -338 -1
-362 15 -365 10 -3 515 -4 1123 -4 l1105 1 3 365 2 364 -651 0 c-358 0 -655 2
-659 5 -5 3 -8 300 -7 660 l2 655 1195 0 c657 1 1201 -1 1208 -3 9 -3 12 -217
12 -1022 l0 -1018 737 1 738 2 0 358 c1 239 -3 357 -10 358 -5 1 -170 3 -365
4 -195 1 -361 3 -368 4 -10 1 -12 136 -10 658 l3 658 433 0 432 0 0 382 0 383
-435 0 -435 0 0 710 0 710 -72 0 c-40 1 -244 2 -453 3 -209 1 -396 0 -415 -3z"/>
</g>
</svg>
